<?xml version="1.0" encoding="utf-8"?>
<!-- License: PD. Made by Mary Akveo: https://maryakveo.com/
     Recoloured white-on-black-circle for the GR6-v2 icon style (see oxts-nav/icon.svg) -->
<svg viewBox="0 0 100 100" xmlns="http://www.w3.org/2000/svg">
  <circle cx="50" cy="50" r="50" fill="#000000"/>
  <g transform="translate(20,20) scale(2.5)">
    <path fill="#ffffff" d="M12,2A10,10,0,1,0,22,12,10,10,0,0,0,12,2Zm0,2a8,8,0,0,1,7.38,4.92A29.93,29.93,0,0,0,12,8a29.63,29.63,0,0,0-7.4.94A8,8,0,0,1,12,4ZM4,12.67l1.11-.13A4.38,4.38,0,0,1,10,16.89v2.85A8,8,0,0,1,4,12.67Zm10,7.07V16.89a4.38,4.38,0,0,1,4.86-4.35l1.11.13A8,8,0,0,1,14,19.74Z"/>
  </g>
</svg>
